<?xml version="1.0" encoding="utf-8"?>
<!-- Generator: Adobe Illustrator 22.1.0, SVG Export Plug-In . SVG Version: 6.00 Build 0)  -->
<svg version="1.1" id="Layer_1" xmlns="http://www.w3.org/2000/svg" xmlns:xlink="http://www.w3.org/1999/xlink" x="0px" y="0px"
	 viewBox="0 0 248.7 251.7" style="enable-background:new 0 0 248.7 251.7;" xml:space="preserve">
<style type="text/css">
	.st0{opacity:0.5;fill:#FFFFFF;}
	.st1{clip-path:url(#SVGID_2_);}
	.st2{clip-path:url(#SVGID_4_);fill:#FFFFFF;}
	.st3{clip-path:url(#SVGID_2_);fill:#FFFFFF;}
	.st4{clip-path:url(#SVGID_6_);fill:#FFFFFF;}
</style>
<path class="st0" d="M151.5,244.8c-39.7,8.4-83.3-3.9-111.9-33C8.8,181.2-3.6,133.3,9.6,91.8c9.7-34.1,34.7-64,68-77.1
	C105.9,1.9,139,1,168.1,12.2c33.5,12.3,60.5,40.5,72,74.2c16.4,43.2,4.1,95.2-29.7,126.7C194.3,229.4,173.1,238.3,151.5,244.8
	L151.5,244.8z M179.8,230.9c11.2-0.3,26-22.6,9.9-24.1c-14.6,1.2-31-0.4-42.7,10.1c-7.2,6.8-33,14.7-17.1,25.1
	c12.3,4.5,25.1-2,37-5.2C171.3,235.1,175.6,233.2,179.8,230.9L179.8,230.9z M205.4,213.3c15.2-13.4,26.7-31,32.8-50.3
	c-13.6-3.9-15.3,16.4-22.3,24c-4.7,9.2-22.9,18.8-14.5,29.5C203.1,216,204.2,214.6,205.4,213.3L205.4,213.3z M125.6,242.7
	c-6.9-14.4-26.3-7.4-37.9-15.2c-7.9-2.2-25.5-15.8-26.3-1.6c19,11.4,41.1,19.7,63.7,17.7l0.3-0.6L125.6,242.7L125.6,242.7z
	 M205.3,195.9c8.3-10.6,20-23,17.6-37.3c-5.4-12.2-1.8-35.9-17.9-38.8c-12.3,3.8-30.5-2.4-36.4,12.6c-6.1,14.3-17.9,25.7-22.4,40.7
	c5.4,10.5,4.7,29.6,16.9,32.9c12.8-1.5,27.8,1.1,38.9-6.3l1.7-1.8L205.3,195.9L205.3,195.9z M130.4,225.1c7.2-8.1,29.4-12,22.9-25.2
	c-5.6-11-6.1-29.1-21.3-30.3c-14.2-4.4-28.7-8-43.1-11.9c-11.1,6.1-26.3,13.3-30.4,25.4c3.3,12.2,6.6,26.4,15,35.8
	c12.9,6.4,26.9,11.9,41.5,12.6C120.9,231.6,125.8,228.4,130.4,225.1L130.4,225.1z M239.1,156.4c6.1-14.4,4.6-30.6,4.2-45.8
	c-0.6-12.6-9.6-23.3-20-29c-6.8,6.2-3.8,20.1-6.4,29.6c-2.3,14.1,5.6,26.5,6.7,40.2C224.9,160.5,232.3,161.7,239.1,156.4
	L239.1,156.4z M66.1,215.5c-4.8-13.2-5.9-30.2-17.4-39.2c-9.3-5-25.7-25.9-31.6-7.5c0.6,16.4,14.8,28,23.7,40.6
	C47,216.7,58.2,225.1,66.1,215.5L66.1,215.5z M146.6,164.7c8-13.9,17-27.2,24-41.7c-7.4-13.1-18.8-23.3-26.8-36
	c-11.1-11.4-24.5,3.2-36.4,5.4c-10.7,4-24.9,5.8-20.7,20.4c-0.1,12.7,0.6,25.3,0.8,38c9.3,11.1,26,8.7,38.4,14
	C132.2,166.7,142.3,173.3,146.6,164.7L146.6,164.7z M60.4,173.8c8.4-8.4,25.6-12.7,24.2-27.3c-0.1-15.3-0.3-30.5-1.5-45.7
	C72,94.5,58.7,75.9,45.9,84.1c-10.3,7.4-25.5,14.4-25.2,29.1c-1.9,13.9-1.3,28.3,3.2,41.6c10.9,6.7,22,22.1,34.8,20.1L60.4,173.8
	L60.4,173.8z M212.9,115.5c1.3-14.2,7.2-29.7,3.4-43.3c-6.5-11.9-15.8-22.1-26.9-29.8c-12.6,2.1-33.3-6.8-39.7,6.2
	c-2.9,13.1-14,28.8-2,40.1c9.9,9.2,14.7,23.6,26.9,30.2c10.7,3,21.8-1.9,32.8-1.5C209.3,117,211.2,116.4,212.9,115.5L212.9,115.5z
	 M236.1,85.4c-7.1-22.2-22.9-40.6-40.7-54.9c-11.2,7.9,9.7,18.9,14.1,26.5C218.3,66.2,223.5,82.2,236.1,85.4L236.1,85.4z M18.1,162
	c5.8-14.1-4.4-28.8-0.9-43.5c2-5.9,4.2-25.4-5-20.3c-5.8,12.8-5,27.9-4,41.7c2.3,7.1,0.9,23.1,8.1,24.6l1.1-1.4L18.1,162L18.1,162z
	 M137,77.6c2.8-11.8,14.7-28.7,6.8-38.5c-12.6-6.4-24.4-19.4-39.4-17.1C91.8,26.4,77,28.8,67.4,38.7C60.9,50,56.3,63.8,55.9,76.8
	c8.8,8.6,21.4,18.9,34.7,19.2C105.8,89.5,121.8,84.4,137,77.6L137,77.6z M188.8,33.1c-1.5-14.7-19.8-16.4-30.8-20.9
	C146,9,133.6,7,121.3,8.3c-11.9,14.4,13.4,19.3,21.2,26.8c13.6,6.8,29.5,3.1,44,3.4C188.8,38.1,189.7,35.1,188.8,33.1L188.8,33.1z
	 M26,95.3c9.9-9.2,25.8-14.3,28.2-29.4c0.8-10.4,16-29.2,0.6-33.6c-10.4,3.4-16.2,14.4-23.4,22.1c-7.2,10.2-14.5,21.2-17,33.5
	C14.5,93,21.2,102,26,95.3L26,95.3z M114.3,15.1c2.1-12.8-17.6-1.8-24.3-0.9c-9,4.2-29,6.4-27.3,18.4c11.5,2.6,20.3-9.9,31.7-11.1
	C101.1,19.7,108.8,19.7,114.3,15.1L114.3,15.1z"/>
<g>
	<g>
		<defs>
			<rect id="SVGID_1_" x="-15.6" y="35.6" width="292.6" height="211.4"/>
		</defs>
		<clipPath id="SVGID_2_">
			<use xlink:href="#SVGID_1_"  style="overflow:visible;"/>
		</clipPath>
		<g class="st1">
			<defs>
				<rect id="SVGID_3_" x="-15.6" y="35.6" width="292.6" height="211.4"/>
			</defs>
			<clipPath id="SVGID_4_">
				<use xlink:href="#SVGID_3_"  style="overflow:visible;"/>
			</clipPath>
			<path class="st2" d="M174,154.1"/>
		</g>
		<polygon class="st3" points="170.2,102.8 153.7,102.8 157.6,90.9 228.6,90.9 225.1,102.8 184.3,102.8 184.3,153.6 170.2,153.6 		
			"/>
		<g class="st1">
			<defs>
				<rect id="SVGID_5_" x="-15.6" y="35.6" width="292.6" height="211.4"/>
			</defs>
			<clipPath id="SVGID_6_">
				<use xlink:href="#SVGID_5_"  style="overflow:visible;"/>
			</clipPath>
			<path class="st4" d="M224.9,154.1"/>
			<path class="st4" d="M207.4,153.6l-15-49.6h15.4l2.7,13.4c1.5,7.8,4.1,14.6,5.6,22.4h0.3c1.6-7.5,3.5-15,5.7-22.1l10.2-34.1h14.1
				L224,153.6H207.4z"/>
			<path class="st4" d="M7.7,130.1c0-4.4-0.1-8-0.3-11.2h9.4l0.5,4.9h0.2c1.4-2.3,4.9-5.7,10.8-5.7c7.2,0,12.5,4.8,12.5,15.1v20.7
				H30v-19.4c0-4.5-1.6-7.6-5.5-7.6c-3,0-4.8,2.1-5.6,4.1c-0.3,0.7-0.4,1.7-0.4,2.7v20.2H7.7V130.1z"/>
			<path class="st4" d="M78.8,145.5c0,3.3,0.1,6.5,0.6,8.4h-9.8l-0.6-3.5h-0.2c-2.3,2.8-5.9,4.3-10,4.3c-7.1,0-11.3-5.2-11.3-10.7
				c0-9.1,8.2-13.4,20.5-13.4v-0.4c0-1.9-1-4.6-6.4-4.6c-3.6,0-7.4,1.2-9.7,2.6l-2-7c2.4-1.4,7.2-3.1,13.6-3.1
				c11.7,0,15.3,6.9,15.3,15.2V145.5z M68.3,137.4c-5.7,0-10.2,1.4-10.2,5.5c0,2.8,1.9,4.2,4.3,4.2c2.6,0,4.9-1.8,5.7-4
				c0.1-0.6,0.2-1.2,0.2-1.9V137.4z"/>
			<path class="st4" d="M87.3,102.8h11l0,20.4h0.1c1.1-1.6,2.6-2.8,4.3-3.7c1.6-0.9,3.7-1.4,5.7-1.4c6.9,0,12.2,4.8,12.2,15.4v20.4
				h-10.9v-19.3c0-4.6-1.6-7.7-5.7-7.7c-2.9,0-4.7,1.9-5.4,3.9c-0.3,0.6-0.4,1.6-0.4,2.4v20.8H87.4L87.3,102.8z"/>
			<path class="st4" d="M137.8,139.9c0.3,4.5,4.8,6.7,9.9,6.7c3.7,0,8.2-1,11.2-2l-0.1,7.9c-3.6,1.5-7.9,2.2-12.7,2.2
				c-11.9,0-18.7-6.9-18.7-17.8c0-8.9,5.5-18.7,17.7-18.7c11.3,0,15.6,8.8,15.6,17.5c0,1.9-0.2,3.5-0.4,4.3H137.8z M150.6,132.5
				c0-2.6-1.1-7.1-6.2-7.1c-4.6,0-6.4,4.2-6.7,7.1H150.6z"/>
		</g>
	</g>
</g>
</svg>
